<svg height="100%" version="1.1" width="100%" xmlns="http://www.w3.org/2000/svg" preserveAspectRatio="xMidYMid meet" viewBox="0 0 600 442" xmlns:xlink="http://www.w3.org/1999/xlink"><desc>Created with Snap</desc><defs/><g id="root" contentwidth="420.70000000000005" contentheight="89.5">
          <!-- <rect class="background" height="100%" width="100%" y="0" x="0" style="" fill="#ffffff"/> -->
          <rect class="watermarklayer" height="100%" width="100%" y="0" x="0" style="" fill="none"/>
          <g class="content" id="content" transform="matrix(1,0,0,1,85.75,231.75)">
            <g class="icon">
            </g>
            <g id="icon_name_and_slogan_gap">
            </g>
            <g class="name_and_slogan" id="name_and_slogan_id">
              <g class="name"><g id="nameDefaultGroup"><path d="M3.9 -38.8L45.6 -38.8L45.6 -24.6L33.4 -24.6L33.4 -29.4L16.3 -29.4L16.3 -8.6L32.8 -8.6L33.8 -12.2L45.9 -12.2L43 0.9L3.9 0.9L3.9 -38.8zM52.9 0.9L52.9 -38.8L94.4 -38.8L94.4 0.9L52.9 0.9zM81.3 -29.3L65.3 -29.3L65.3 -8.2L81.3 -8.2L81.3 -29.3zM142 0.9L142 -29.2L134.2 -29.2L134.2 0.9L121.5 0.9L121.5 -29.2L113.7 -29.2L113.7 0.9L101.2 0.9L101.2 -38.9L154.7 -38.9L154.7 0.9L142 0.9zM202.7 0.9L202.7 -29.2L194.9 -29.2L194.9 0.9L182.2 0.9L182.2 -29.2L174.4 -29.2L174.4 0.9L161.8 0.9L161.8 -38.9L215.3 -38.9L215.3 0.9L202.7 0.9zM222.8 -38.8L264.5 -38.8L264.5 -24.6L252.4 -24.6L252.4 -29.4L235.2 -29.4L235.2 -8.6L251.7 -8.6L252.7 -12.2L264.8 -12.2L261.9 0.9L222.8 0.9L222.8 -38.8zM310.3 -38.7L310.3 0.9L296.5 0.9L296.5 -29.7L284.3 -29.7L284.3 0.9L271.9 0.9L271.9 -55.5L284.3 -55.5L284.3 -38.7L310.3 -38.7zM359.8 -7.8L359.8 0.9L317 0.9L317 -23.2L344.9 -23.2L344.9 -30L329.6 -30L329.6 -27.4L317.6 -27.4L317.6 -38.8L357 -38.8L357 -7.8L359.8 -7.8zM344.9 -7.8L344.9 -14.4L329.1 -14.4L329.1 -7.8L344.9 -7.8zM366.8 -44.1L366.8 -55.4L379.4 -55.4L379.4 -44.1L366.8 -44.1zM366.8 0.9L366.8 -38.7L379.4 -38.7L379.4 0.9L366.8 0.9zM412.3 0.9L412.3 -28.9L398.8 -28.9L398.8 0.9L386.4 0.9L386.4 -38.6L424.6 -38.6L424.6 0.9L412.3 0.9z" style="" fill="#e8343d" id="namepathdata"/></g><g id="gSl43wrwttgwa-out2"><path d="M3.9 -38.8L45.6 -38.8L45.6 -24.6L33.4 -24.6L33.4 -29.4L16.3 -29.4L16.3 -8.6L32.8 -8.6L33.8 -12.2L45.9 -12.2L43 0.9L3.9 0.9L3.9 -38.8zM52.9 0.9L52.9 -38.8L94.4 -38.8L94.4 0.9L52.9 0.9zM81.3 -29.3L65.3 -29.3L65.3 -8.2L81.3 -8.2L81.3 -29.3zM142 0.9L142 -29.2L134.2 -29.2L134.2 0.9L121.5 0.9L121.5 -29.2L113.7 -29.2L113.7 0.9L101.2 0.9L101.2 -38.9L154.7 -38.9L154.7 0.9L142 0.9zM202.7 0.9L202.7 -29.2L194.9 -29.2L194.9 0.9L182.2 0.9L182.2 -29.2L174.4 -29.2L174.4 0.9L161.8 0.9L161.8 -38.9L215.3 -38.9L215.3 0.9L202.7 0.9zM222.8 -38.8L264.5 -38.8L264.5 -24.6L252.4 -24.6L252.4 -29.4L235.2 -29.4L235.2 -8.6L251.7 -8.6L252.7 -12.2L264.8 -12.2L261.9 0.9L222.8 0.9L222.8 -38.8zM310.3 -38.7L310.3 0.9L296.5 0.9L296.5 -29.7L284.3 -29.7L284.3 0.9L271.9 0.9L271.9 -55.5L284.3 -55.5L284.3 -38.7L310.3 -38.7zM359.8 -7.8L359.8 0.9L317 0.9L317 -23.2L344.9 -23.2L344.9 -30L329.6 -30L329.6 -27.4L317.6 -27.4L317.6 -38.8L357 -38.8L357 -7.8L359.8 -7.8zM344.9 -7.8L344.9 -14.4L329.1 -14.4L329.1 -7.8L344.9 -7.8zM366.8 -44.1L366.8 -55.4L379.4 -55.4L379.4 -44.1L366.8 -44.1zM366.8 0.9L366.8 -38.7L379.4 -38.7L379.4 0.9L366.8 0.9zM412.3 0.9L412.3 -28.9L398.8 -28.9L398.8 0.9L386.4 0.9L386.4 -38.6L424.6 -38.6L424.6 0.9L412.3 0.9z" style="stroke-width: 1; fill-opacity: 0;" fill="#000000" id="pathSl43wrwttgwf" stroke="url(#text-effect-reflect-S6KmKB9AZJowRg60YX1YY)" paint-order="stroke" transform="matrix(1,0,0,1,20,0)"/></g><g id="gSl43wrwttgwa-out1"><path d="M3.9 -38.8L45.6 -38.8L45.6 -24.6L33.4 -24.6L33.4 -29.4L16.3 -29.4L16.3 -8.6L32.8 -8.6L33.8 -12.2L45.9 -12.2L43 0.9L3.9 0.9L3.9 -38.8zM52.9 0.9L52.9 -38.8L94.4 -38.8L94.4 0.9L52.9 0.9zM81.3 -29.3L65.3 -29.3L65.3 -8.2L81.3 -8.2L81.3 -29.3zM142 0.9L142 -29.2L134.2 -29.2L134.2 0.9L121.5 0.9L121.5 -29.2L113.7 -29.2L113.7 0.9L101.2 0.9L101.2 -38.9L154.7 -38.9L154.7 0.9L142 0.9zM202.7 0.9L202.7 -29.2L194.9 -29.2L194.9 0.9L182.2 0.9L182.2 -29.2L174.4 -29.2L174.4 0.9L161.8 0.9L161.8 -38.9L215.3 -38.9L215.3 0.9L202.7 0.9zM222.8 -38.8L264.5 -38.8L264.5 -24.6L252.4 -24.6L252.4 -29.4L235.2 -29.4L235.2 -8.6L251.7 -8.6L252.7 -12.2L264.8 -12.2L261.9 0.9L222.8 0.9L222.8 -38.8zM310.3 -38.7L310.3 0.9L296.5 0.9L296.5 -29.7L284.3 -29.7L284.3 0.9L271.9 0.9L271.9 -55.5L284.3 -55.5L284.3 -38.7L310.3 -38.7zM359.8 -7.8L359.8 0.9L317 0.9L317 -23.2L344.9 -23.2L344.9 -30L329.6 -30L329.6 -27.4L317.6 -27.4L317.6 -38.8L357 -38.8L357 -7.8L359.8 -7.8zM344.9 -7.8L344.9 -14.4L329.1 -14.4L329.1 -7.8L344.9 -7.8zM366.8 -44.1L366.8 -55.4L379.4 -55.4L379.4 -44.1L366.8 -44.1zM366.8 0.9L366.8 -38.7L379.4 -38.7L379.4 0.9L366.8 0.9zM412.3 0.9L412.3 -28.9L398.8 -28.9L398.8 0.9L386.4 0.9L386.4 -38.6L424.6 -38.6L424.6 0.9L412.3 0.9z" style="stroke-width: 1; fill-opacity: 0;" fill="#000000" id="pathSl43wrwttgwc" stroke="url(#text-effect-reflect-8RsqO08VInmObk7XoRCOx)" paint-order="stroke" transform="matrix(1,0,0,1,-20,0)"/></g></g>
            </g>
            <g class="border">
            </g>
          </g>
          <defs id="defs">
            <mask xmlns="http://www.w3.org/2000/svg" id="mask">
                <rect id="showAll" fill="white" x="0" y="0" width="0" height="0"/>
                <rect id="hideNameBg" fill="black" x="0" y="0" width="0" height="0" stroke-width="2" stroke="black"/>
                <rect id="hideSloganBg" fill="black" x="0" y="0" width="0" height="0" stroke-width="2" stroke="black"/>
            </mask>
          
          <linearGradient id="text-effect-reflect-8RsqO08VInmObk7XoRCOx" y2="0" x2="1">   <stop offset="0" stop-color="#e8343d" stop-opacity="0.5"> </stop>   <stop offset="0.5" stop-color="#ffffff" stop-opacity="0"> </stop> </linearGradient> <linearGradient id="text-effect-reflect-S6KmKB9AZJowRg60YX1YY" y2="0" x2="1">   <stop offset="0.5" stop-color="#ffffff" stop-opacity="0"> </stop>   <stop offset="1" stop-color="#e8343d" stop-opacity="0.5"> </stop> </linearGradient></defs>
        </g>
        </svg>