<svg height="100%" version="1.1" width="100%" xmlns="http://www.w3.org/2000/svg" preserveAspectRatio="xMidYMid meet" viewBox="0 0 600 442" xmlns:xlink="http://www.w3.org/1999/xlink"><desc>Created with Snap</desc><defs/><g id="root" contentwidth="420.70000000000005" contentheight="89.5">
          <!-- <rect class="background" height="100%" width="100%" y="0" x="0" style="" fill="#ffffff"/> -->
          <rect class="watermarklayer" height="100%" width="100%" y="0" x="0" style="" fill="none"/>
          <g class="content" id="content" transform="matrix(1,0,0,1,85.75,231.75)">
            <g class="icon">
            </g>
            <g id="icon_name_and_slogan_gap">
            </g>
            <g class="name_and_slogan" id="name_and_slogan_id">
              <g class="name"><g id="nameDefaultGroup"><path d="M3.9 -38.8L45.6 -38.8L45.6 -24.6L33.4 -24.6L33.4 -29.4L16.3 -29.4L16.3 -8.6L32.8 -8.6L33.8 -12.2L45.9 -12.2L43 0.9L3.9 0.9L3.9 -38.8zM52.9 0.9L52.9 -38.8L94.4 -38.8L94.4 0.9L52.9 0.9zM81.3 -29.3L65.3 -29.3L65.3 -8.2L81.3 -8.2L81.3 -29.3zM142 0.9L142 -29.2L134.2 -29.2L134.2 0.9L121.5 0.9L121.5 -29.2L113.7 -29.2L113.7 0.9L101.2 0.9L101.2 -38.9L154.7 -38.9L154.7 0.9L142 0.9zM202.7 0.9L202.7 -29.2L194.9 -29.2L194.9 0.9L182.2 0.9L182.2 -29.2L174.4 -29.2L174.4 0.9L161.8 0.9L161.8 -38.9L215.3 -38.9L215.3 0.9L202.7 0.9zM222.8 -38.8L264.5 -38.8L264.5 -24.6L252.4 -24.6L252.4 -29.4L235.2 -29.4L235.2 -8.6L251.7 -8.6L252.7 -12.2L264.8 -12.2L261.9 0.9L222.8 0.9L222.8 -38.8zM310.3 -38.7L310.3 0.9L296.5 0.9L296.5 -29.7L284.3 -29.7L284.3 0.9L271.9 0.9L271.9 -55.5L284.3 -55.5L284.3 -38.7L310.3 -38.7zM359.8 -7.8L359.8 0.9L317 0.9L317 -23.2L344.9 -23.2L344.9 -30L329.6 -30L329.6 -27.4L317.6 -27.4L317.6 -38.8L357 -38.8L357 -7.8L359.8 -7.8zM344.9 -7.8L344.9 -14.4L329.1 -14.4L329.1 -7.8L344.9 -7.8zM366.8 -44.1L366.8 -55.4L379.4 -55.4L379.4 -44.1L366.8 -44.1zM366.8 0.9L366.8 -38.7L379.4 -38.7L379.4 0.9L366.8 0.9zM412.3 0.9L412.3 -28.9L398.8 -28.9L398.8 0.9L386.4 0.9L386.4 -38.6L424.6 -38.6L424.6 0.9L412.3 0.9z" style="" fill="#e8343d" id="namepathdata"/></g><g id="gSl43wrwttgwa-out2"><path d="M3.9 -38.8L45.6 -38.8L45.6 -24.6L33.4 -24.6L33.4 -29.4L16.3 -29.4L16.3 -8.6L32.8 -8.6L33.8 -12.2L45.9 -12.2L43 0.9L3.9 0.9L3.9 -38.8zM52.9 0.9L52.9 -38.8L94.4 -38.8L94.4 0.9L52.9 0.9zM81.3 -29.3L65.3 -29.3L65.3 -8.2L81.3 -8.2L81.3 -29.3zM142 0.9L142 -29.2L134.2 -29.2L134.2 0.9L121.5 0.9L121.5 -29.2L113.7 -29.2L113.7 0.9L101.2 0.9L101.2 -38.9L154.7 -38.9L154.7 0.9L142 0.9zM202.7 0.9L202.7 -29.2L194.9 -29.2L194.9 0.9L182.2 0.9L182.2 -29.2L174.4 -29.2L174.4 0.9L161.8 0.9L161.8 -38.9L215.3 -38.9L215.3 0.9L202.7 0.9zM222.8 -38.8L264.5 -38.8L264.5 -24.6L252.4 -24.6L252.4 -29.4L235.2 -29.4L235.2 -8.6L251.7 -8.6L252.7 -12.2L264.8 -12.2L261.9 0.9L222.8 0.9L222.8 -38.8zM310.3 -38.7L310.3 0.9L296.5 0.9L296.5 -29.7L284.3 -29.7L284.3 0.9L271.9 0.9L271.9 -55.5L284.3 -55.5L284.3 -38.7L310.3 -38.7zM359.8 -7.8L359.8 0.9L317 0.9L317 -23.2L344.9 -23.2L344.9 -30L329.6 -30L329.6 -27.4L317.6 -27.4L317.6 -38.8L357 -38.8L357 -7.8L359.8 -7.8zM344.9 -7.8L344.9 -14.4L329.1 -14.4L329.1 -7.8L344.9 -7.8zM366.8 -44.1L366.8 -55.4L379.4 -55.4L379.4 -44.1L366.8 -44.1zM366.8 0.9L366.8 -38.7L379.4 -38.7L379.4 0.9L366.8 0.9zM412.3 0.9L412.3 -28.9L398.8 -28.9L398.8 0.9L386.4 0.9L386.4 -38.6L424.6 -38.6L424.6 0.9L412.3 0.9z" style="stroke-width: 1; fill-opacity: 0;" fill="#000000" id="pathSl43wrwttgwf" stroke="url(#text-effect-reflect-S6KmKB9AZJowRg60YX1YY)" paint-order="stroke" transform="matrix(1,0,0,1,20,0)"/></g><g id="gSl43wrwttgwa-out1"><path d="M3.9 -38.8L45.6 -38.8L45.6 -24.6L33.4 -24.6L33.4 -29.4L16.3 -29.4L16.3 -8.6L32.8 -8.6L33.8 -12.2L45.9 -12.2L43 0.9L3.9 0.9L3.9 -38.8zM52.9 0.9L52.9 -38.8L94.4 -38.8L94.4 0.9L52.9 0.9zM81.3 -29.3L65.3 -29.3L65.3 -8.2L81.3 -8.2L81.3 -29.3zM142 0.9L142 -29.2L134.2 -29.2L134.2 0.9L121.5 0.9L121.5 -29.2L113.7 -29.2L113.7 0.9L101.2 0.9L101.2 -38.9L154.7 -38.9L154.7 0.9L142 0.9zM202.7 0.9L202.7 -29.2L194.9 -29.2L194.9 0.9L182.2 0.9L182.2 -29.2L174.4 -29.2L174.4 0.9L161.8 0.9L161.8 -38.9L215.3 -38.9L215.3 0.9L202.7 0.9zM222.8 -38.8L264.5 -38.8L264.5 -24.6L252.4 -24.6L252.4 -29.4L235.2 -29.4L235.2 -8.6L251.7 -8.6L252.7 -12.2L264.8 -12.2L261.9 0.9L222.8 0.9L222.8 -38.8zM310.3 -38.7L310.3 0.9L296.5 0.9L296.5 -29.7L284.3 -29.7L284.3 0.9L271.9 0.9L271.9 -55.5L284.3 -55.5L284.3 -38.7L310.3 -38.7zM359.8 -7.8L359.8 0.9L317 0.9L317 -23.2L344.9 -23.2L344.9 -30L329.6 -30L329.6 -27.4L317.6 -27.4L317.6 -38.8L357 -38.8L357 -7.8L359.8 -7.8zM344.9 -7.8L344.9 -14.4L329.1 -14.4L329.1 -7.8L344.9 -7.8zM366.8 -44.1L366.8 -55.4L379.4 -55.4L379.4 -44.1L366.8 -44.1zM366.8 0.9L366.8 -38.7L379.4 -38.7L379.4 0.9L366.8 0.9zM412.3 0.9L412.3 -28.9L398.8 -28.9L398.8 0.9L386.4 0.9L386.4 -38.6L424.6 -38.6L424.6 0.9L412.3 0.9z" style="stroke-width: 1; fill-opacity: 0;" fill="#000000" id="pathSl43wrwttgwc" stroke="url(#text-effect-reflect-8RsqO08VInmObk7XoRCOx)" paint-order="stroke" transform="matrix(1,0,0,1,-20,0)"/></g></g>
              <g class="slogan"><g id="sloganDefaultGroup"><path d="M91.9 28.6L98 20.7L98 20.6L92.4 20.6L92.4 19.2L100.1 19.2L100.1 20.5L93.9 28.4L93.9 28.5L100.4 28.5L100.4 30L91.9 30L91.9 28.6zM111.4 30L109.2 30L105.2 25L104.7 25L104.7 30L102.9 30L102.9 14.8L104.7 14.8L104.7 23.6L105.3 23.6L109 19.2L111.2 19.2L106.6 24.2L111.4 30zM121.3 30L117.5 24.4Q117.4 24.4 117.2 24.4Q117 24.4 116.8 24.4L115.1 24.4L115.1 30L113.3 30L113.3 16.1L116.8 16.1Q118.3 16.1 119.3 16.3Q120.3 16.5 120.9 17Q121.6 17.5 121.9 18.3Q122.1 19.1 122.1 20.2Q122.1 22 121.4 23Q120.7 23.9 119.3 24.2L123.5 30L121.3 30zM116.7 22.9Q117.6 22.9 118.3 22.8Q119 22.7 119.5 22.5Q119.9 22.2 120.1 21.6Q120.3 21.1 120.3 20.2Q120.3 19.4 120.1 18.9Q119.9 18.4 119.5 18.2Q119 17.9 118.3 17.8Q117.6 17.7 116.7 17.7L115.1 17.7L115.1 22.9L116.7 22.9zM129.9 30.2Q128.7 30.2 127.8 29.9Q126.9 29.7 126.2 29Q125.6 28.4 125.3 27.3Q124.9 26.2 124.9 24.6Q124.9 23 125.3 21.9Q125.6 20.8 126.2 20.2Q126.9 19.5 127.8 19.3Q128.7 19 129.9 19Q131.1 19 132.1 19.3Q133 19.5 133.6 20.2Q134.3 20.8 134.6 21.9Q134.9 23 134.9 24.6Q134.9 26.2 134.6 27.3Q134.3 28.4 133.6 29Q133 29.7 132.1 29.9Q131.1 30.2 129.9 30.2zM129.9 28.7Q130.9 28.7 131.5 28.5Q132.1 28.3 132.4 27.9Q132.8 27.4 132.9 26.6Q133.1 25.8 133.1 24.6Q133.1 23.4 132.9 22.6Q132.8 21.8 132.4 21.3Q132 20.9 131.4 20.7Q130.8 20.4 129.9 20.4Q129 20.4 128.4 20.7Q127.8 20.9 127.4 21.3Q127.1 21.8 126.9 22.6Q126.8 23.4 126.8 24.6Q126.8 25.8 126.9 26.6Q127.1 27.4 127.5 27.9Q127.9 28.3 128.4 28.5Q129.1 28.7 129.9 28.7zM140.3 30.1Q139.1 30.1 138.5 29.6Q137.9 29 137.9 27.8L137.9 14.8L139.7 14.8L139.7 27.4Q139.7 28.2 139.9 28.5Q140.1 28.7 140.7 28.7Q140.8 28.7 141 28.7Q141.3 28.6 141.5 28.6L141.5 30Q141.2 30.1 141 30.1Q140.7 30.1 140.3 30.1zM146.1 30.1Q144.9 30.1 144.2 29.6Q143.7 29 143.7 27.8L143.7 14.8L145.4 14.8L145.4 27.4Q145.4 28.2 145.6 28.5Q145.9 28.7 146.4 28.7Q146.6 28.7 146.8 28.7Q147 28.6 147.2 28.6L147.2 30Q147 30.1 146.7 30.1Q146.4 30.1 146.1 30.1zM158 19.2L158 30L156.5 30L156.3 28.4Q156.1 29 155.7 29.3Q155.3 29.7 154.9 29.9Q154.4 30 153.9 30.1Q153.4 30.2 152.9 30.2Q151.9 30.2 151.2 30Q150.5 29.7 150 29.2Q149.6 28.8 149.5 28.1Q149.3 27.5 149.3 26.7L149.3 19.2L151 19.2L151 26Q151 26.7 151.1 27.2Q151.2 27.6 151.4 28Q151.6 28.3 152 28.5Q152.5 28.7 153.1 28.7Q153.6 28.7 154.1 28.6Q154.6 28.5 155 28.3Q155.4 28.1 155.7 27.7Q156 27.2 156.3 26.5L156.3 19.2L158 19.2zM166.9 19Q168.2 19 169.1 19.4Q170 19.8 170.4 20.6Q170.9 21.3 171.1 22.3Q171.3 23.4 171.3 24.6Q171.3 25.7 171.1 26.7Q170.9 27.7 170.4 28.5Q170 29.3 169.1 29.8Q168.2 30.2 166.9 30.2Q165.3 30.2 164.5 29.6Q163.7 29.1 163.4 28.1L163.4 34L161.6 34L161.6 19.2L163.4 19.2L163.4 21.1Q163.7 20.2 164.5 19.6Q165.3 19 166.9 19zM166.6 28.7Q167.6 28.7 168.2 28.4Q168.7 28 169 27.5Q169.3 26.9 169.4 26.1Q169.5 25.4 169.5 24.6Q169.5 23.7 169.4 23Q169.3 22.2 169 21.7Q168.7 21.1 168.1 20.8Q167.6 20.4 166.6 20.4Q165.7 20.4 165 20.7Q164.4 21 164 21.6Q163.6 22.1 163.4 22.9Q163.3 23.6 163.3 24.6Q163.3 25.5 163.4 26.3Q163.6 27.1 164 27.6Q164.4 28.1 165 28.4Q165.7 28.7 166.6 28.7zM183.8 30.2Q182.6 30.2 181.7 29.9Q180.8 29.7 180.1 29Q179.5 28.4 179.2 27.3Q178.8 26.2 178.8 24.6Q178.8 23 179.2 21.9Q179.5 20.8 180.1 20.2Q180.8 19.5 181.7 19.3Q182.6 19 183.8 19Q185 19 186 19.3Q186.9 19.5 187.5 20.2Q188.2 20.8 188.5 21.9Q188.8 23 188.8 24.6Q188.8 26.2 188.5 27.3Q188.2 28.4 187.5 29Q186.9 29.7 186 29.9Q185 30.2 183.8 30.2zM183.8 28.7Q184.8 28.7 185.4 28.5Q186 28.3 186.3 27.9Q186.7 27.4 186.8 26.6Q187 25.8 187 24.6Q187 23.4 186.8 22.6Q186.7 21.8 186.3 21.3Q185.9 20.9 185.3 20.7Q184.7 20.4 183.8 20.4Q182.9 20.4 182.3 20.7Q181.7 20.9 181.3 21.3Q181 21.8 180.8 22.6Q180.7 23.4 180.7 24.6Q180.7 25.8 180.8 26.6Q181 27.4 181.4 27.9Q181.8 28.3 182.3 28.5Q183 28.7 183.8 28.7zM195.8 16.1Q195.3 16.1 194.9 16.2Q194.5 16.4 194.3 16.7Q194.1 17.1 194 17.7Q193.9 18.3 193.9 19.2L196.4 19.2L196.4 20.6L193.9 20.6L193.9 30L192.2 30L192.2 20.6L190.4 20.6L190.4 19.2L192.2 19.2L192.2 19.1Q192.2 17.7 192.4 16.8Q192.7 16 193.2 15.5Q193.7 15 194.3 14.9Q195 14.7 195.8 14.7Q196.1 14.7 196.4 14.8Q196.7 14.8 197 14.8L197 16.2Q196.5 16.1 195.8 16.1zM204 16.1L208 16.1Q209.3 16.1 210.2 16.3Q211.1 16.6 211.7 17Q212.2 17.5 212.4 18.2Q212.6 18.9 212.6 19.8Q212.6 20.9 212.2 21.6Q211.7 22.4 210.6 22.7L210.6 22.8Q211.3 23 211.8 23.2Q212.3 23.5 212.6 24Q212.9 24.4 213 24.9Q213.1 25.4 213.1 26Q213.1 27 212.9 27.7Q212.7 28.5 212.1 29Q211.6 29.5 210.7 29.8Q209.8 30 208.4 30L204 30L204 16.1zM207.1 22.2Q208.1 22.2 208.8 22.1Q209.6 22 210 21.8Q210.5 21.5 210.7 21Q210.9 20.6 210.9 19.9Q210.9 19.1 210.7 18.7Q210.5 18.2 210 18Q209.6 17.8 208.8 17.7Q208.1 17.6 207.1 17.6L205.8 17.6L205.8 22.2L207.1 22.2zM207.6 28.5Q208.7 28.5 209.4 28.4Q210.1 28.3 210.5 28Q211 27.7 211.1 27.2Q211.3 26.8 211.3 26Q211.3 25.4 211.1 24.9Q210.9 24.5 210.5 24.2Q210.1 23.9 209.4 23.8Q208.7 23.6 207.6 23.6L205.8 23.6L205.8 28.5L207.6 28.5zM216.4 16.1L219.2 16.1L225.5 27.6L225.6 27.6L225.6 16.1L227.4 16.1L227.4 30L225.1 30L218.3 17.8L218.1 17.8L218.1 30L216.4 30L216.4 16.1zM231.1 16.1L235.1 16.1Q236.5 16.1 237.4 16.3Q238.3 16.6 238.8 17Q239.3 17.5 239.6 18.2Q239.8 18.9 239.8 19.8Q239.8 20.9 239.3 21.6Q238.9 22.4 237.8 22.7L237.8 22.8Q238.5 23 238.9 23.2Q239.4 23.5 239.7 24Q240 24.4 240.1 24.9Q240.2 25.4 240.2 26Q240.2 27 240 27.7Q239.8 28.5 239.2 29Q238.7 29.5 237.8 29.8Q236.9 30 235.5 30L231.1 30L231.1 16.1zM234.3 22.2Q235.3 22.2 236 22.1Q236.7 22 237.1 21.8Q237.6 21.5 237.8 21Q238 20.6 238 19.9Q238 19.1 237.8 18.7Q237.6 18.2 237.1 18Q236.7 17.8 236 17.7Q235.3 17.6 234.3 17.6L232.9 17.6L232.9 22.2L234.3 22.2zM234.8 28.5Q235.8 28.5 236.5 28.4Q237.3 28.3 237.7 28Q238.1 27.7 238.3 27.2Q238.4 26.8 238.4 26Q238.4 25.4 238.2 24.9Q238.1 24.5 237.7 24.2Q237.2 23.9 236.5 23.8Q235.8 23.6 234.8 23.6L232.9 23.6L232.9 28.5L234.8 28.5zM252.1 30.2Q251.4 30.2 250.8 30.1Q250.2 30.1 249.6 30Q249.1 29.9 248.6 29.9Q248.2 29.8 248 29.7L248 28Q248.3 28.1 248.7 28.2Q249.2 28.3 249.7 28.4Q250.3 28.5 250.9 28.6Q251.5 28.6 252.1 28.6Q253.6 28.6 254.4 28.1Q255.2 27.6 255.2 26.3Q255.2 25.6 255.1 25.2Q255 24.8 254.6 24.5Q254.3 24.2 253.6 24Q253 23.7 252 23.5Q251 23.2 250.2 23Q249.5 22.7 249 22.2Q248.6 21.8 248.4 21.2Q248.2 20.6 248.2 19.7Q248.2 17.8 249.3 16.8Q250.4 15.9 252.8 15.9Q253.3 15.9 253.8 16Q254.3 16 254.8 16.1Q255.2 16.1 255.6 16.2Q256 16.3 256.3 16.4L256.3 18Q255.7 17.8 254.7 17.7Q253.7 17.5 252.8 17.5Q252.1 17.5 251.5 17.6Q251 17.7 250.6 17.9Q250.3 18.1 250.1 18.6Q249.9 19 249.9 19.7Q249.9 20.1 250 20.5Q250.1 20.8 250.4 21.1Q250.7 21.4 251.3 21.6Q251.8 21.8 252.8 22Q253.9 22.3 254.7 22.6Q255.6 22.9 256.1 23.4Q256.6 23.9 256.8 24.5Q257 25.2 257 26.3Q257 28.3 255.8 29.2Q254.5 30.2 252.1 30.2zM260.8 17.2Q260.3 17.2 260 17Q259.8 16.9 259.8 16.2Q259.8 15.5 260 15.4Q260.3 15.2 260.8 15.2Q261.4 15.2 261.6 15.4Q261.9 15.5 261.9 16.2Q261.9 16.9 261.6 17Q261.4 17.2 260.8 17.2zM260 19.2L261.7 19.2L261.7 30L260 30L260 19.2zM274.4 14.8L274.4 30L272.9 30L272.7 28.2Q272.4 29.1 271.5 29.6Q270.6 30.2 269.2 30.2Q267.8 30.2 266.9 29.8Q266.1 29.4 265.6 28.6Q265.1 27.9 264.9 26.9Q264.7 25.8 264.7 24.6Q264.7 23.5 264.9 22.5Q265.1 21.5 265.6 20.7Q266.1 19.9 266.9 19.5Q267.8 19 269.2 19Q270 19 270.5 19.2Q271.1 19.3 271.5 19.6Q272 19.8 272.2 20.2Q272.5 20.6 272.7 21.1L272.7 14.8L274.4 14.8zM269.4 28.7Q270.4 28.7 271 28.5Q271.7 28.2 272.1 27.6Q272.4 27.1 272.6 26.3Q272.7 25.6 272.7 24.6Q272.7 23.7 272.6 22.9Q272.4 22.1 272.1 21.6Q271.7 21 271 20.8Q270.4 20.4 269.4 20.4Q268.4 20.4 267.9 20.8Q267.3 21.1 267 21.7Q266.7 22.3 266.6 23.1Q266.5 23.8 266.5 24.6Q266.5 25.4 266.6 26.2Q266.7 27 267 27.5Q267.3 28.1 267.9 28.4Q268.5 28.7 269.4 28.7zM286.6 23.5Q286.6 23.7 286.6 24.1Q286.5 24.4 286.5 24.8L279.2 25.2Q279.2 26.1 279.4 26.8Q279.5 27.4 279.9 27.8Q280.3 28.3 281 28.5Q281.7 28.7 282.6 28.7Q283.5 28.7 284.5 28.5Q285.4 28.3 286 28L286 29.6Q285.8 29.7 285.4 29.8Q285 29.9 284.5 30Q284.1 30.1 283.5 30.1Q283 30.2 282.4 30.2Q281.2 30.2 280.2 29.9Q279.3 29.7 278.7 29Q278 28.4 277.7 27.3Q277.4 26.2 277.4 24.6Q277.4 23 277.7 21.9Q278 20.8 278.7 20.2Q279.3 19.5 280.2 19.3Q281.1 19 282.3 19Q283.7 19 284.5 19.4Q285.4 19.8 285.8 20.5Q286.3 21.1 286.4 21.9Q286.6 22.7 286.6 23.5zM284.9 23.5Q284.9 22.9 284.8 22.4Q284.7 21.8 284.5 21.4Q284.2 20.9 283.7 20.7Q283.2 20.4 282.3 20.4Q281.3 20.4 280.7 20.7Q280.2 20.9 279.8 21.4Q279.5 21.8 279.3 22.5Q279.2 23.1 279.2 24L284.9 23.5zM293.9 30.2Q292.7 30.2 291.8 29.9Q290.9 29.7 290.2 29Q289.6 28.4 289.3 27.3Q288.9 26.2 288.9 24.6Q288.9 23 289.3 21.9Q289.6 20.8 290.2 20.2Q290.9 19.5 291.8 19.3Q292.7 19 293.9 19Q294.8 19 295.6 19.1Q296.3 19.2 296.8 19.4L296.8 21Q296.2 20.8 295.5 20.6Q294.8 20.5 294 20.5Q293.1 20.5 292.4 20.7Q291.9 20.9 291.5 21.4Q291.1 21.8 290.9 22.6Q290.8 23.4 290.8 24.6Q290.8 25.8 290.9 26.6Q291.1 27.4 291.5 27.8Q291.9 28.3 292.5 28.5Q293.1 28.7 294 28.7Q294.7 28.7 295.5 28.6Q296.2 28.5 296.8 28.2L296.8 29.8Q296.6 29.9 296.2 30Q295.9 30 295.5 30.1Q295.1 30.1 294.7 30.2Q294.3 30.2 293.9 30.2zM304.7 19Q305.8 19 306.4 19.3Q307.2 19.5 307.6 20Q308 20.5 308.2 21.1Q308.3 21.7 308.3 22.5L308.3 30L306.6 30L306.6 23.2Q306.6 22.5 306.5 22.1Q306.4 21.6 306.2 21.2Q306 20.9 305.6 20.7Q305.2 20.5 304.5 20.5Q304 20.5 303.5 20.6Q303 20.7 302.6 20.9Q302.2 21.1 301.8 21.6Q301.5 22 301.2 22.7L301.2 30L299.5 30L299.5 14.8L301.2 14.8L301.2 20.7Q301.5 20.2 301.9 19.9Q302.3 19.5 302.7 19.4Q303.2 19.2 303.7 19.1Q304.2 19 304.7 19zM316.2 19Q317.4 19 318.3 19.2Q319.1 19.5 319.6 19.9Q320.1 20.4 320.3 21Q320.5 21.6 320.5 22.3L320.5 30L319 30L318.7 28.4Q318.5 28.8 318.1 29.1Q317.7 29.5 317.2 29.7Q316.7 30 316.1 30.1Q315.5 30.2 314.9 30.2Q312.9 30.2 312 29.4Q311.2 28.5 311.2 27Q311.2 26 311.5 25.4Q311.8 24.7 312.3 24.3Q312.9 23.9 313.7 23.7Q314.5 23.5 315.4 23.5L318.7 23.5L318.7 22.6Q318.7 22.2 318.6 21.8Q318.5 21.3 318.2 21.1Q317.9 20.8 317.4 20.6Q316.9 20.4 316.1 20.4Q315.5 20.4 314.9 20.5Q314.3 20.6 313.7 20.7L313.7 19.2Q314.3 19.1 314.9 19Q315.6 19 316.2 19zM315 28.8Q316.4 28.8 317.4 28.2Q318.3 27.7 318.7 26.7L318.7 24.9L315.6 24.9Q314.9 24.9 314.4 25Q313.9 25.1 313.6 25.3Q313.3 25.5 313.1 26Q312.9 26.3 312.9 27Q312.9 27.9 313.4 28.3Q313.9 28.8 315 28.8zM325 17.2Q324.4 17.2 324.2 17Q324 16.9 324 16.2Q324 15.5 324.2 15.4Q324.4 15.2 325 15.2Q325.5 15.2 325.8 15.4Q326 15.5 326 16.2Q326 16.9 325.8 17Q325.5 17.2 325 17.2zM324.1 19.2L325.8 19.2L325.8 30L324.1 30L324.1 19.2zM334.7 19Q335.7 19 336.4 19.3Q337.1 19.5 337.5 20Q337.9 20.5 338.1 21.1Q338.3 21.7 338.3 22.5L338.3 30L336.5 30L336.5 23.2Q336.5 22.5 336.5 22.1Q336.4 21.6 336.1 21.2Q335.9 20.9 335.5 20.7Q335.1 20.5 334.5 20.5Q334 20.5 333.5 20.6Q333 20.7 332.5 20.9Q332.1 21.1 331.8 21.6Q331.4 22 331.2 22.7L331.2 30L329.5 30L329.5 19.2L331.2 19.2L331.2 20.7Q331.4 20.2 331.8 19.9Q332.2 19.5 332.7 19.4Q333.1 19.2 333.6 19.1Q334.2 19 334.7 19z" style="" fill="#161606" id="sloganpathdata"/></g></g>
            </g>
            <g class="border">
            </g>
          </g>
          <defs id="defs">
            <mask xmlns="http://www.w3.org/2000/svg" id="mask">
                <rect id="showAll" fill="white" x="0" y="0" width="0" height="0"/>
                <rect id="hideNameBg" fill="black" x="0" y="0" width="0" height="0" stroke-width="2" stroke="black"/>
                <rect id="hideSloganBg" fill="black" x="0" y="0" width="0" height="0" stroke-width="2" stroke="black"/>
            </mask>
          
          <linearGradient id="text-effect-reflect-8RsqO08VInmObk7XoRCOx" y2="0" x2="1">   <stop offset="0" stop-color="#e8343d" stop-opacity="0.5"> </stop>   <stop offset="0.5" stop-color="#ffffff" stop-opacity="0"> </stop> </linearGradient> <linearGradient id="text-effect-reflect-S6KmKB9AZJowRg60YX1YY" y2="0" x2="1">   <stop offset="0.5" stop-color="#ffffff" stop-opacity="0"> </stop>   <stop offset="1" stop-color="#e8343d" stop-opacity="0.5"> </stop> </linearGradient></defs>
        </g>
        </svg>